<?xml version="1.0" standalone="no"?>
<!DOCTYPE svg PUBLIC "-//W3C//DTD SVG 20010904//EN"
 "http://www.w3.org/TR/2001/REC-SVG-20010904/DTD/svg10.dtd">
<svg version="1.0" xmlns="http://www.w3.org/2000/svg"
 width="512.000000pt" height="512.000000pt" viewBox="0 0 512.000000 512.000000"
 preserveAspectRatio="xMidYMid meet">
<metadata>
Created by potrace 1.14, written by Peter Selinger 2001-2017
</metadata>
<g transform="translate(0.000000,512.000000) scale(0.100000,-0.100000)"
fill="#000000" stroke="none">
<path d="M2430 4619 c-366 -20 -689 -155 -821 -341 -179 -254 -77 -600 315
-1066 l87 -102 -102 85 c-287 240 -512 364 -719 396 -274 42 -493 -129 -609
-477 -86 -255 -108 -601 -56 -879 57 -310 162 -516 317 -626 254 -179 595 -78
1067 316 l102 85 -87 -102 c-292 -348 -428 -639 -397 -855 21 -143 107 -269
250 -366 96 -64 276 -128 466 -164 131 -25 503 -25 634 0 438 83 677 260 716
530 31 216 -105 507 -397 855 l-87 102 102 -85 c292 -244 518 -367 728 -397
192 -27 367 61 494 249 64 96 128 276 164 466 25 131 25 503 0 634 -81 429
-255 669 -516 715 -217 37 -511 -97 -870 -397 l-102 -85 87 102 c392 466 494
812 315 1066 -165 233 -593 368 -1081 341z m507 -63 c229 -49 396 -130 506
-244 177 -187 168 -422 -31 -757 -35 -59 -226 -320 -241 -330 -5 -2 10 33 33
78 67 132 84 260 50 361 -39 114 -188 221 -382 274 -91 24 -111 26 -312 26
-201 0 -221 -2 -312 -26 -194 -53 -343 -160 -382 -274 -34 -101 -17 -229 50
-361 23 -45 38 -80 33 -78 -15 10 -206 271 -241 330 -165 277 -197 480 -107
657 30 58 119 149 195 198 88 58 243 116 387 144 170 35 167 34 412 31 192 -3
236 -6 342 -29z m-142 -632 c218 -42 361 -127 422 -251 51 -106 28 -246 -68
-413 -23 -38 -42 -70 -44 -70 -2 0 6 28 17 63 52 165 -13 296 -187 378 -116
54 -213 73 -375 73 -162 0 -259 -19 -375 -73 -86 -41 -152 -98 -180 -158 -27
-57 -30 -147 -7 -220 11 -35 19 -63 17 -63 -2 0 -21 32 -44 70 -128 222 -125
388 8 513 96 89 271 151 486 171 66 6 255 -5 330 -20z m-20 -269 c143 -30 269
-106 312 -189 9 -16 18 -57 20 -91 6 -67 -19 -158 -63 -230 l-24 -40 7 35 c31
140 -26 241 -170 304 -91 40 -154 51 -297 51 -143 0 -206 -11 -297 -51 -144
-63 -201 -164 -170 -304 l7 -35 -24 40 c-44 72 -69 163 -63 230 5 72 22 108
74 159 68 67 188 112 368 140 56 8 239 -3 320 -19z m-1520 -104 c24 -7 9 -9
-67 -10 -154 -1 -262 -54 -361 -176 -143 -177 -220 -458 -220 -805 0 -347 77
-628 220 -805 99 -122 207 -175 361 -176 112 -1 91 -15 -38 -25 -132 -11 -243
29 -342 123 -115 111 -195 276 -245 511 -26 119 -28 143 -27 372 0 228 2 254
27 372 91 428 292 649 577 633 47 -2 99 -9 115 -14z m2908 -8 c174 -69 306
-257 377 -536 37 -149 50 -261 50 -447 0 -186 -13 -298 -50 -447 -70 -278
-203 -467 -375 -535 -67 -26 -168 -33 -255 -17 l-75 14 110 5 c100 4 117 8
179 39 82 40 167 122 220 210 126 207 191 549 166 869 -32 408 -171 697 -386
803 -62 31 -79 35 -179 39 l-110 5 55 12 c75 16 214 9 273 -14z m-2835 -45
c43 -13 41 -13 -60 -13 -86 -1 -112 -4 -158 -25 -248 -107 -392 -438 -392
-900 0 -462 144 -793 392 -900 46 -21 72 -24 158 -25 98 0 102 -1 62 -12 -257
-75 -476 55 -595 352 -74 185 -99 332 -99 585 0 253 25 400 99 585 81 201 213
332 367 365 53 11 168 5 226 -12z m2757 -9 c199 -74 341 -330 390 -702 58
-446 -58 -906 -275 -1087 -85 -70 -153 -93 -270 -93 -52 0 -115 7 -138 14 -44
14 -43 14 60 14 86 1 112 4 158 25 179 77 293 254 362 561 20 93 23 130 23
339 0 209 -3 246 -23 339 -69 307 -183 484 -362 561 -46 20 -72 24 -157 25
-56 0 -100 1 -98 3 1 1 31 9 66 17 81 19 189 12 264 -16z m-1357 -35 c178 -37
282 -127 282 -245 0 -39 -49 -179 -63 -179 -1 0 -1 20 1 44 6 65 -13 110 -65
155 -56 50 -125 76 -237 92 -156 22 -323 -15 -409 -92 -52 -45 -71 -90 -65
-155 2 -24 2 -44 1 -44 -14 0 -63 140 -63 179 0 115 103 208 275 244 93 20
248 21 343 1z m-1308 -17 l45 -14 -76 5 c-164 10 -283 -49 -383 -192 -231
-330 -231 -1022 0 -1352 100 -143 219 -202 383 -192 l76 5 -45 -15 c-29 -10
-83 -16 -150 -16 -100 -1 -109 1 -172 32 -220 108 -351 430 -351 862 0 469
153 804 406 886 52 17 204 12 267 -9z m2601 -15 c74 -37 99 -58 160 -133 140
-172 219 -534 191 -868 -21 -248 -93 -469 -191 -590 -61 -75 -86 -96 -161
-133 -61 -31 -70 -33 -170 -32 -68 0 -121 6 -150 16 l-45 16 72 -6 c310 -22
510 245 554 740 18 207 -11 453 -72 618 -99 267 -262 394 -482 377 -40 -3 -65
-2 -57 1 61 23 116 31 196 29 80 -2 99 -7 155 -35z m-2508 -47 c26 -10 47 -19
45 -20 -2 -2 -30 1 -63 7 -121 19 -234 -22 -326 -119 -89 -92 -157 -248 -190
-433 -18 -99 -18 -401 0 -500 33 -185 101 -341 190 -433 92 -97 205 -138 326
-119 33 6 61 9 63 7 2 -2 -21 -11 -50 -21 -39 -14 -81 -19 -158 -19 -90 0
-112 3 -153 24 -152 75 -258 256 -313 536 -27 136 -25 435 4 570 64 296 175
468 342 529 57 21 213 16 283 -9z m2410 -5 c147 -70 255 -248 308 -506 33
-158 33 -450 0 -608 -53 -258 -160 -434 -308 -507 -41 -21 -63 -24 -153 -24
-77 0 -119 5 -158 19 -29 10 -52 19 -50 21 2 2 30 -1 63 -7 122 -19 234 22
328 120 274 288 274 1076 0 1364 -106 110 -228 146 -378 112 -17 -4 -18 -4 -3
5 71 46 267 52 351 11z m-2333 -59 l55 -20 -71 5 c-283 24 -474 -272 -474
-736 0 -464 191 -760 474 -736 l71 5 -55 -21 c-40 -15 -80 -21 -145 -22 -78
-1 -98 3 -148 26 -186 87 -307 381 -307 748 0 409 145 714 367 770 54 13 169
4 233 -19z m2235 -5 c144 -66 262 -285 295 -548 54 -431 -76 -842 -297 -946
-50 -23 -70 -27 -148 -26 -65 1 -105 7 -145 22 l-55 21 71 -5 c283 -24 474
272 474 736 0 464 -191 760 -474 736 l-71 -5 40 15 c106 41 222 41 310 0z
m-1075 -36 c74 -25 123 -58 151 -104 25 -38 21 -120 -7 -181 l-18 -40 -6 50
c-7 59 -21 83 -67 115 -63 43 -129 59 -243 59 -114 0 -180 -16 -243 -59 -46
-32 -60 -56 -67 -115 l-6 -50 -18 40 c-28 61 -32 143 -7 181 37 61 116 103
231 124 73 14 227 3 300 -20z m-1107 -15 c32 -8 75 -24 95 -36 20 -11 28 -17
17 -13 -11 4 -54 9 -96 12 -70 4 -83 1 -142 -27 -80 -38 -125 -88 -177 -196
-47 -99 -67 -178 -82 -322 -21 -196 10 -396 82 -548 52 -108 97 -158 177 -196
59 -28 72 -31 142 -27 42 3 85 8 96 12 11 4 3 -2 -17 -13 -86 -48 -205 -63
-294 -36 -143 42 -255 218 -299 469 -20 115 -20 337 0 452 32 182 114 353 202
420 79 60 186 78 296 49z m2033 0 c71 -21 127 -66 180 -147 89 -134 134 -317
134 -548 0 -231 -45 -414 -134 -548 -73 -110 -162 -162 -276 -162 -57 0 -149
23 -198 51 -20 11 -28 17 -17 13 11 -4 54 -9 96 -12 70 -4 83 -1 142 27 80 38
125 88 177 196 47 99 67 178 82 323 21 195 -10 395 -82 547 -52 108 -97 158
-177 196 -59 28 -72 31 -142 27 -42 -3 -85 -8 -96 -12 -11 -4 -3 2 17 14 86
47 205 62 294 35z m-1919 -81 c26 -9 70 -27 98 -40 27 -13 41 -21 30 -18 -11
4 -54 9 -95 11 -95 7 -160 -18 -219 -82 -192 -208 -194 -755 -3 -967 69 -76
187 -108 291 -78 61 17 44 4 -36 -30 -99 -41 -210 -51 -275 -25 -120 48 -208
185 -249 390 -18 92 -18 358 0 450 40 199 127 339 241 388 47 21 158 21 217 1z
m1819 0 c90 -37 161 -124 208 -255 39 -108 51 -194 51 -359 0 -165 -12 -251
-51 -359 -90 -250 -255 -328 -487 -231 -80 34 -97 47 -36 30 18 -6 61 -10 94
-10 183 0 306 173 334 468 22 240 -33 470 -140 587 -59 64 -124 89 -219 82
-41 -2 -84 -7 -95 -11 -36 -11 69 37 120 55 63 23 170 24 221 3z m-869 -51
c62 -18 120 -66 132 -108 9 -33 -8 -118 -28 -138 -8 -8 -11 -2 -11 25 0 63
-64 110 -174 128 -156 25 -306 -37 -306 -127 0 -46 -16 -33 -34 27 -11 36 -12
59 -5 84 30 109 242 164 426 109z m-864 -28 c52 -14 177 -70 177 -79 0 -3 -15
0 -32 5 -95 27 -197 -7 -256 -86 -134 -178 -134 -572 0 -750 59 -79 161 -113
256 -86 52 15 37 2 -40 -34 -105 -50 -171 -61 -240 -41 -138 40 -220 182 -249
431 -20 172 12 374 79 499 34 62 103 123 161 140 60 19 76 19 144 1z m1574 0
c62 -18 130 -77 165 -141 67 -125 99 -327 79 -499 -29 -249 -111 -391 -249
-431 -69 -20 -135 -9 -239 41 -78 36 -93 49 -41 34 131 -37 253 34 310 183 79
207 55 509 -54 653 -59 79 -161 113 -256 86 -17 -5 -32 -8 -32 -5 0 9 124 65
173 79 68 18 83 18 144 0z m-722 -114 c56 -25 80 -55 79 -100 -1 -21 -7 -48
-13 -60 -13 -23 -13 -23 -29 11 -25 49 -80 73 -172 73 -92 0 -147 -24 -172
-73 -16 -34 -16 -34 -29 -11 -31 60 -10 123 54 156 70 36 206 38 282 4z m-689
4 c27 -8 81 -35 119 -61 39 -25 62 -43 53 -40 -121 37 -201 -7 -251 -142 -18
-47 -22 -79 -22 -182 0 -103 4 -135 22 -182 50 -135 130 -179 251 -142 9 3
-14 -15 -53 -40 -147 -97 -270 -102 -352 -15 -151 161 -151 597 0 758 58 61
133 76 233 46z m1277 1 c106 -45 177 -216 177 -426 0 -163 -42 -303 -113 -379
-82 -87 -205 -82 -352 15 -38 25 -62 43 -53 40 121 -37 201 7 251 142 31 82
31 282 0 364 -50 135 -130 180 -251 142 -40 -13 118 82 163 98 61 21 134 23
178 4z m-611 -133 c38 -22 48 -65 25 -109 -14 -26 -15 -27 -21 -7 -9 28 -64
53 -116 53 -52 0 -107 -25 -116 -53 -6 -20 -7 -20 -20 4 -18 32 -17 84 1 99
52 43 184 50 247 13z m-456 -19 c68 -37 155 -108 244 -198 l74 -76 -74 -76
c-88 -89 -176 -160 -245 -199 -64 -36 -146 -41 -186 -10 -65 49 -99 148 -99
285 0 159 44 261 130 302 28 14 106 0 156 -28z m877 10 c63 -48 97 -148 97
-284 0 -137 -34 -236 -99 -285 -40 -31 -122 -26 -186 10 -69 39 -157 110 -245
199 l-74 76 74 76 c115 116 239 208 306 227 35 10 101 0 127 -19z m-465 -100
c24 -17 28 -50 9 -75 -11 -15 -15 -15 -32 -3 -10 8 -31 14 -45 14 -14 0 -35
-6 -45 -14 -17 -12 -21 -12 -32 3 -35 46 2 91 77 91 25 0 56 -7 68 -16z m-32
-105 c3 -6 -3 -21 -15 -32 l-21 -21 -21 21 c-26 26 -18 43 21 43 16 0 32 -5
36 -11z m-12 -128 c23 -25 13 -41 -24 -41 -16 0 -32 5 -35 11 -7 10 21 49 35
49 4 0 15 -9 24 -19z m-24 -71 c15 0 35 6 45 14 17 12 21 12 32 -3 35 -46 -2
-91 -77 -91 -75 0 -109 39 -78 89 11 17 14 18 32 5 11 -8 32 -14 46 -14z m-75
-94 c66 -32 176 -10 191 37 6 20 7 19 21 -7 8 -15 13 -41 11 -59 -5 -48 -53
-72 -148 -72 -124 0 -173 45 -139 128 12 29 13 29 22 9 5 -11 24 -28 42 -36z
m-40 -111 c29 -15 60 -20 115 -20 92 0 147 24 172 73 16 34 16 34 29 11 21
-39 16 -95 -10 -123 -77 -82 -305 -82 -382 0 -26 28 -31 84 -10 123 13 23 13
23 29 -11 10 -20 33 -41 57 -53z m-97 -80 c38 -38 71 -53 146 -65 157 -25 306
37 306 128 0 48 19 30 35 -35 16 -62 5 -100 -40 -139 -50 -44 -129 -66 -235
-66 -228 0 -339 112 -256 257 10 18 11 16 14 -17 2 -23 13 -46 30 -63z m-79
-101 c20 -30 75 -65 134 -85 72 -25 242 -25 314 0 59 20 114 55 134 85 7 12
16 44 19 71 l6 50 18 -40 c25 -54 32 -127 16 -165 -20 -48 -83 -95 -163 -121
-103 -33 -271 -33 -374 0 -80 26 -143 73 -163 121 -16 38 -9 111 16 165 l18
40 6 -50 c3 -27 12 -59 19 -71z m-97 -8 c-6 -65 13 -110 65 -155 148 -131 498
-131 646 0 52 45 71 90 65 155 -2 24 -2 44 -1 44 14 0 63 -140 63 -179 1 -154
-183 -261 -450 -261 -267 0 -451 107 -450 261 0 39 49 179 63 179 1 0 1 -20
-1 -44z m-83 -86 c-34 -149 70 -268 281 -321 73 -19 307 -19 380 0 220 56 314
171 277 341 l-7 35 24 -40 c44 -72 69 -163 63 -230 -5 -72 -22 -108 -74 -159
-90 -88 -265 -140 -473 -140 -256 0 -461 80 -527 207 -21 42 -28 128 -14 184
12 46 71 177 77 170 2 -1 -2 -23 -7 -47z m-91 -92 c-23 -74 -20 -164 7 -221
44 -93 178 -177 340 -213 109 -24 321 -24 430 0 162 36 296 120 340 213 27 57
30 147 7 221 -11 34 -19 62 -17 62 2 0 21 -32 44 -70 96 -167 119 -307 68
-413 -84 -170 -326 -270 -657 -270 -331 0 -573 100 -657 270 -51 106 -28 246
68 413 23 38 42 70 44 70 2 0 -6 -28 -17 -62z m-82 -50 c-67 -133 -84 -261
-50 -362 39 -114 185 -219 380 -273 94 -26 110 -28 314 -28 204 0 220 2 314
28 195 54 341 159 380 273 34 101 17 229 -50 361 -23 45 -38 80 -33 78 15 -10
206 -271 241 -330 115 -195 153 -307 152 -455 -1 -122 -15 -166 -84 -261 -86
-119 -253 -213 -473 -269 -149 -37 -261 -50 -447 -50 -186 0 -298 13 -447 50
-279 70 -464 200 -537 377 -30 73 -29 233 3 333 27 88 102 237 167 335 46 68
202 275 208 275 2 0 -15 -37 -38 -82z"/>
</g>
</svg>
